<svg xmlns="http://www.w3.org/2000/svg" viewBox="0 0 100 100">
  <path d="M72,64 C72,55.16 62.15,48 50,48 C37.85,48 28,55.16 28,64 C28,72.84 37.85,80 50,80 C62.15,80 72,72.84 72,64 Z" fill="#C97B57" stroke="#3A3C32" stroke-width="1.3" stroke-linejoin="round"/>
  <path d="M24,40 C18,32 22,22 30,20 C36,26 36,38 28,42 Z" fill="#7C9473" stroke="#3A3C32" stroke-width="1.3" stroke-linejoin="round"/>
  <path d="M30,20 L26,40" stroke="#3A3C32" stroke-width="1" fill="none"/>
  <path d="M42,25 C38,15 44,6 52,6 C56,14 54,26 46,28 Z" fill="#7C9473" stroke="#3A3C32" stroke-width="1.3" stroke-linejoin="round"/>
  <path d="M52,6 L46,27" stroke="#3A3C32" stroke-width="1" fill="none"/>
  <path d="M64,25 C68,15 62,6 54,6 C50,14 52,26 60,28 Z" fill="#7C9473" stroke="#3A3C32" stroke-width="1.3" stroke-linejoin="round"/>
  <path d="M54,6 L60,27" stroke="#3A3C32" stroke-width="1" fill="none"/>
  <path d="M76,40 C82,32 78,22 70,20 C64,26 64,38 72,42 Z" fill="#7C9473" stroke="#3A3C32" stroke-width="1.3" stroke-linejoin="round"/>
  <path d="M70,20 L74,40" stroke="#3A3C32" stroke-width="1" fill="none"/>
</svg>
